<svg width="883" height="632" viewBox="0 0 883 632" fill="none" xmlns="http://www.w3.org/2000/svg">
<path fill-rule="evenodd" clip-rule="evenodd" d="M414.23 135.395L392.877 152.156C371.627 168.837 352.799 189.468 336.734 214.401L336.732 214.403C335.048 217.016 333.461 219.524 331.969 221.93C334.318 223.28 336.667 224.693 339.014 226.169C347.986 231.65 357.106 238.092 366.378 245.727C369.088 247.677 371.034 249.364 371.632 249.882C371.693 249.935 371.74 249.975 371.772 250.003L371.772 250.003C371.896 250.108 371.974 250.176 372.047 250.238C372.048 250.238 372.048 250.238 372.048 250.238C376.254 253.548 380.968 257.68 385.565 262.69C420.605 298.276 436.181 344.947 436.181 396.737C436.181 456.721 413.753 510.461 372.149 556.844C346.056 586.08 315.155 608.143 278.937 620.234C271.038 623.242 263.46 625.082 257.101 626.32C245.984 628.89 235.064 630.114 224.643 630.574C219.764 631.006 215.591 631.003 213.162 631C213.001 631 212.847 631 212.702 631C203.697 631 195.004 630.607 186.29 629.815L186.171 629.804L186.052 629.793C139.175 625.31 97.2045 608.578 62.6196 577.945C16.8297 537.498 0 477.191 0 409.806C0 335.146 33.9303 256.295 92.3417 175.18C152.253 91.196 224.262 33.4435 308.625 7.24903L329.04 0.910156L347.728 11.2894C385.047 32.0159 407.969 65.6026 411.804 108.359L414.23 135.395ZM95.7401 540.488C121.547 563.358 153.241 576.427 190.812 580.02C198 580.673 205.184 581 212.702 581C215.639 581 218.254 581 221.196 580.673C230.015 580.347 238.509 579.367 246.677 577.407C251.904 576.427 257.132 575.12 262.034 573.159C289.151 564.338 313.327 547.677 334.891 523.499C369.192 485.275 386.181 443.129 386.181 396.737C386.181 354.92 373.768 321.594 349.263 297.092C346.65 294.151 343.71 291.538 340.769 289.251C340.257 288.84 339.776 288.43 339.307 288.03C338.283 287.155 337.316 286.33 336.197 285.657C328.028 278.797 320.189 273.242 312.672 268.668C300.256 260.828 288.821 255.927 278.696 253.312C277.318 252.968 275.963 252.669 274.631 252.416C270.908 251.707 267.362 251.353 263.995 251.353C265.049 240.803 272.066 224.716 284.701 203.437C287.717 198.358 291.052 192.984 294.703 187.318C313.652 157.911 336.197 133.085 362.004 112.826C359.719 87.3445 346.977 68.0664 323.452 55.0002C251.904 77.2152 188.196 126.877 132.982 204.307C77.4423 281.41 50 350.019 50 409.806C50 469.919 65.027 513.371 95.7401 540.488Z" fill="black" fill-opacity="0.1"/>
<path fill-rule="evenodd" clip-rule="evenodd" d="M860.23 135.485L838.877 152.246C817.627 168.927 798.799 189.558 782.734 214.49L782.732 214.493C781.048 217.106 779.461 219.614 777.969 222.02C780.318 223.369 782.667 224.783 785.014 226.259C793.986 231.739 803.106 238.182 812.378 245.817C815.088 247.767 817.034 249.453 817.632 249.972C817.693 250.024 817.74 250.065 817.772 250.093L817.772 250.093C817.896 250.198 817.974 250.265 818.047 250.327C818.048 250.328 818.048 250.328 818.048 250.328C822.254 253.638 826.968 257.769 831.565 262.78C866.605 298.365 882.181 345.037 882.181 396.827C882.181 456.811 859.753 510.551 818.149 556.934C792.056 586.17 761.155 608.233 724.937 620.324C717.038 623.332 709.46 625.172 703.101 626.41C691.984 628.979 681.064 630.204 670.643 630.664C665.764 631.096 661.591 631.092 659.162 631.09C659.001 631.09 658.847 631.09 658.702 631.09C649.697 631.09 641.004 630.696 632.29 629.905L632.171 629.894L632.052 629.883C585.175 625.4 543.205 608.668 508.62 578.035C462.83 537.588 446 477.281 446 409.895C446 335.236 479.93 256.385 538.342 175.27C598.253 91.2859 670.262 33.5334 754.625 7.33888L775.04 1L793.728 11.3792C831.047 32.1058 853.969 65.6924 857.804 108.449L860.23 135.485ZM541.74 540.578C567.547 563.448 599.241 576.517 636.812 580.11C644 580.763 651.184 581.09 658.702 581.09C661.639 581.09 664.254 581.09 667.196 580.763C676.015 580.437 684.509 579.457 692.677 577.497C697.904 576.517 703.132 575.209 708.034 573.249C735.151 564.428 759.327 547.767 780.891 523.589C815.192 485.365 832.181 443.219 832.181 396.827C832.181 355.009 819.768 321.684 795.263 297.181C792.65 294.241 789.71 291.628 786.769 289.341C786.257 288.93 785.776 288.52 785.307 288.12C784.283 287.245 783.316 286.42 782.197 285.747C774.028 278.887 766.189 273.331 758.672 268.758C746.256 260.917 734.821 256.017 724.696 253.402C723.318 253.058 721.963 252.759 720.631 252.505C716.908 251.797 713.362 251.443 709.995 251.443C711.049 240.892 718.066 224.806 730.701 203.527C733.717 198.448 737.052 193.074 740.703 187.408C759.652 158.001 782.197 133.174 808.004 112.916C805.719 87.4343 792.977 68.1562 769.452 55.09C697.904 77.3051 634.196 126.967 578.982 204.397C523.442 281.5 496 350.109 496 409.895C496 470.009 511.027 513.461 541.74 540.578Z" fill="black" fill-opacity="0.1"/>
</svg>
