<svg width="70" height="70" viewBox="0 0 70 70" fill="none" xmlns="http://www.w3.org/2000/svg">
<g clip-path="url(#clip0_740_314)">
<mask id="mask0_740_314" style="mask-type:luminance" maskUnits="userSpaceOnUse" x="0" y="0" width="70" height="70">
<path d="M70 0H0V70H70V0Z" fill="white"/>
</mask>
<g mask="url(#mask0_740_314)">
<path d="M66.6164 8.74433V61.2414C66.628 63.5484 65.723 65.7656 64.1002 67.4053C62.4773 69.0451 60.2697 69.9733 57.9628 69.9856C57.6041 69.9883 57.2457 69.9688 56.8894 69.9272C54.7362 69.6078 52.7739 68.5124 51.372 66.8471C49.97 65.1819 49.2249 63.0618 49.2769 60.8856V9.10015C49.2253 6.92181 49.9725 4.79985 51.3774 3.13431C52.7823 1.46878 54.7481 0.37476 56.9039 0.0584948C58.1271 -0.084358 59.3667 0.0340681 60.5406 0.405942C61.7146 0.777816 62.7963 1.39467 63.7141 2.2157C64.6318 3.03674 65.365 4.04326 65.8648 5.1687C66.3646 6.29416 66.6227 7.51289 66.6164 8.74433ZM12.0544 52.6606C10.9025 52.6395 9.75791 52.8481 8.68754 53.2742C7.61715 53.7005 6.64246 54.3357 5.82035 55.143C4.99826 55.9501 4.34524 56.913 3.89948 57.9753C3.45371 59.0378 3.22412 60.1782 3.22412 61.3304C3.22412 62.4825 3.45371 63.623 3.89948 64.6854C4.34524 65.7478 4.99826 66.7107 5.82035 67.5178C6.64246 68.3249 7.61715 68.9603 8.68754 69.3864C9.75791 69.8127 10.9025 70.0213 12.0544 70.0002C14.3263 69.9585 16.491 69.0268 18.0828 67.4054C19.6747 65.7841 20.5666 63.6026 20.5666 61.3304C20.5666 59.0582 19.6747 56.8767 18.0828 55.2554C16.491 53.634 14.3263 52.7022 12.0544 52.6606ZM35.0144 26.3814H34.8686C32.5537 26.5081 30.3791 27.5305 28.8048 29.2322C27.2305 30.9337 26.3801 33.1813 26.4336 35.4989V58.7886C26.4336 65.1089 29.2161 68.9443 33.2877 69.7639C34.5511 70.0202 35.8558 69.9921 37.1069 69.6814C38.3581 69.3709 39.5246 68.7857 40.5215 67.9682C41.5183 67.1509 42.3208 66.1219 42.8707 64.9558C43.4205 63.7898 43.7039 62.5159 43.7002 61.2268V35.0964C43.7022 33.9538 43.479 32.8221 43.0435 31.7658C42.6081 30.7095 41.9689 29.7493 41.1622 28.94C40.3556 28.1308 39.3976 27.4882 38.3427 27.0493C37.288 26.6103 36.1569 26.3833 35.0144 26.3814Z" fill="black" fill-opacity="0.3"/>
</g>
</g>
<defs>
<clipPath id="clip0_740_314">
<rect width="70" height="70" fill="white"/>
</clipPath>
</defs>
</svg>
