<svg width="70" height="70" viewBox="0 0 70 70" fill="none" xmlns="http://www.w3.org/2000/svg">
<path d="M15.8171 8.86084C12.0721 8.86084 9.30417 12.1392 9.42958 15.6917C9.54625 19.1071 9.39167 23.5317 8.2775 27.1367C7.16042 30.7533 5.27333 33.0458 2.1875 33.3404V36.6596C5.27333 36.9542 7.16042 39.2467 8.2775 42.8633C9.39167 46.4712 9.54625 50.8929 9.42667 54.3083C9.30417 57.8608 12.0721 61.1392 15.82 61.1392H54.1858C57.9308 61.1392 60.7017 57.8608 60.5792 54.3083C60.4596 50.8929 60.6142 46.4712 61.7254 42.8633C62.8454 39.2467 64.7296 36.9542 67.8125 36.6596V33.3404C64.7267 33.0458 62.8454 30.7533 61.7254 27.1367C60.6142 23.5317 60.4596 19.1071 60.5792 15.6917C60.7017 12.1392 57.9308 8.86084 54.1858 8.86084H15.8171ZM46.6783 41.0404C46.6783 45.9346 43.0296 48.9037 36.9717 48.9037H26.6583C26.5121 48.9041 26.3672 48.8757 26.2321 48.8199C26.097 48.7643 25.9741 48.6825 25.8706 48.5792C25.7672 48.4762 25.6851 48.3535 25.6289 48.2185C25.5729 48.0834 25.5442 47.9387 25.5442 47.7925V22.2075C25.5446 22.0617 25.5737 21.9172 25.6299 21.7824C25.6861 21.6479 25.7682 21.5256 25.8716 21.4225C25.9752 21.3197 26.0979 21.2382 26.2329 21.1826C26.3678 21.1272 26.5123 21.0988 26.6583 21.0992H36.9104C41.9621 21.0992 45.2783 23.8321 45.2783 28.035C45.2783 30.9808 43.0471 33.6233 40.2062 34.0842V34.2387C44.0737 34.6617 46.6783 37.3421 46.6783 41.0404ZM35.8458 24.6225H29.9658V32.9292H34.9183C38.7479 32.9292 40.8567 31.3862 40.8567 28.63C40.8567 26.0487 39.0425 24.6225 35.8458 24.6225ZM29.9658 36.2221V45.3775H36.0617C40.0487 45.3775 42.1575 43.7762 42.1575 40.7692C42.1575 37.765 39.9904 36.2221 35.805 36.2221H29.9658Z" fill="black" fill-opacity="0.3"/>
</svg>
