<svg width="70" height="70" viewBox="0 0 70 70" fill="none" xmlns="http://www.w3.org/2000/svg">
<g clip-path="url(#clip0_740_308)">
<mask id="mask0_740_308" style="mask-type:luminance" maskUnits="userSpaceOnUse" x="0" y="0" width="70" height="70">
<path d="M70 0H0V70H70V0Z" fill="white"/>
</mask>
<g mask="url(#mask0_740_308)">
<path fill-rule="evenodd" clip-rule="evenodd" d="M43.7499 5.83325C46.1197 5.8331 48.4335 6.55464 50.383 7.90185C52.3326 9.24907 53.8257 11.1581 54.6637 13.3748C55.5016 15.5915 55.6446 18.0108 55.0737 20.3109C54.5026 22.6108 53.2448 24.6824 51.4674 26.25C53.6413 28.1626 55.0262 30.8156 55.3528 33.6928C55.6796 36.5699 54.9246 39.4657 53.2348 41.8171C51.5448 44.1686 49.0409 45.8075 46.2098 46.4154C43.3788 47.0233 40.4228 46.5567 37.9165 45.1062V52.5C37.9165 54.4493 37.4279 56.3677 36.4954 58.0797C35.563 59.7917 34.2163 61.2427 32.5786 62.3002C30.9409 63.3577 29.0643 63.988 27.1203 64.1334C25.1762 64.2789 23.2267 63.9349 21.45 63.1328C19.6731 62.3308 18.1256 61.0962 16.9489 59.542C15.772 57.9878 15.0034 56.1635 14.7132 54.2358C14.423 52.308 14.6205 50.3384 15.2878 48.5066C15.9549 46.6748 17.0704 45.0395 18.5324 43.75C17.2896 42.6563 16.2947 41.31 15.6136 39.8011C14.9326 38.2922 14.5813 36.6553 14.5833 35C14.5813 33.3445 14.9326 31.7076 15.6136 30.1987C16.2947 28.6899 17.2896 27.3436 18.5324 26.25C16.7551 24.6824 15.4972 22.6108 14.9263 20.3109C14.3552 18.0108 14.4982 15.5915 15.3362 13.3748C16.1741 11.1581 17.6672 9.24907 19.6168 7.90185C21.5665 6.55464 23.8801 5.8331 26.2499 5.83325H43.7499ZM32.0833 46.6666H26.2499C25.0962 46.6666 23.9683 47.0087 23.009 47.6497C22.0498 48.2906 21.3022 49.2017 20.8606 50.2675C20.419 51.3335 20.3035 52.5064 20.5287 53.6379C20.7538 54.7695 21.3093 55.8089 22.1251 56.6247C22.941 57.4406 23.9804 57.9961 25.1118 58.2212C26.2435 58.4462 27.4164 58.3307 28.4822 57.8893C29.5482 57.4477 30.4591 56.7 31.1002 55.7407C31.7411 54.7814 32.0833 53.6536 32.0833 52.5V46.6666ZM32.0833 29.1666H26.2499C24.7028 29.1666 23.219 29.7812 22.1251 30.8751C21.0311 31.9691 20.4165 33.4528 20.4165 35C20.4165 36.547 21.0311 38.0307 22.1251 39.1246C23.219 40.2186 24.7028 40.8332 26.2499 40.8332H32.0833V29.1666ZM43.7499 29.1666C42.2028 29.1666 40.719 29.7812 39.6251 30.8751C38.5311 31.9691 37.9165 33.4528 37.9165 35C37.9165 36.547 38.5311 38.0307 39.6251 39.1246C40.719 40.2186 42.2028 40.8332 43.7499 40.8332C45.297 40.8332 46.7808 40.2186 47.8747 39.1246C48.9687 38.0307 49.5833 36.547 49.5833 35C49.5833 33.4528 48.9687 31.9691 47.8747 30.8751C46.7808 29.7812 45.297 29.1666 43.7499 29.1666ZM43.7499 11.6666H37.9165V23.3332H43.7499C45.2636 23.3401 46.7207 22.7581 47.8133 21.7105C48.9058 20.6628 49.5484 19.2315 49.6053 17.7188C49.6621 16.2062 49.1286 14.7306 48.1176 13.6041C47.1067 12.4774 45.6973 11.7879 44.1874 11.6812L43.7499 11.6666ZM32.0833 11.6666H26.2499C24.7028 11.6666 23.219 12.2812 22.1251 13.3751C21.0311 14.4691 20.4165 15.9528 20.4165 17.5C20.4165 19.047 21.0311 20.5307 22.1251 21.6247C23.219 22.7186 24.7028 23.3332 26.2499 23.3332H32.0833V11.6666Z" fill="black" fill-opacity="0.3"/>
</g>
</g>
<defs>
<clipPath id="clip0_740_308">
<rect width="70" height="70" fill="white"/>
</clipPath>
</defs>
</svg>
