<svg width="38" height="38" viewBox="0 0 38 38" fill="none" xmlns="http://www.w3.org/2000/svg">
<path d="M28.2955 0H9.43182C6.93034 0 4.53132 0.993707 2.76252 2.76252C0.993707 4.53132 0 6.93034 0 9.43182V28.2955C0 30.7969 0.993707 33.1959 2.76252 34.9648C4.53132 36.7336 6.93034 37.7273 9.43182 37.7273H28.2955C30.7969 37.7273 33.1959 36.7336 34.9648 34.9648C36.7336 33.1959 37.7273 30.7969 37.7273 28.2955V9.43182C37.7273 6.93034 36.7336 4.53132 34.9648 2.76252C33.1959 0.993707 30.7969 0 28.2955 0ZM23.5607 27.8805H20.618C20.5006 27.8967 20.3815 27.8664 20.2863 27.7958C20.191 27.7253 20.1273 27.6202 20.1086 27.5032C19.7502 26.4468 19.373 25.3905 19.0145 24.3152C19.0033 24.2478 18.9785 24.1834 18.9418 24.1257C18.9051 24.0681 18.8571 24.0184 18.8008 23.9797C18.7444 23.9409 18.6809 23.914 18.6139 23.9003C18.5469 23.8867 18.4779 23.8866 18.4109 23.9002H13.3932C13.3235 23.8838 13.2511 23.8822 13.1808 23.8956C13.1105 23.9091 13.0437 23.9372 12.985 23.9781C12.9263 24.019 12.8768 24.0719 12.8399 24.1332C12.803 24.1946 12.7794 24.263 12.7707 24.3341C12.45 25.3905 12.0916 26.4091 11.7709 27.4655C11.7619 27.5321 11.7394 27.5962 11.7046 27.6537C11.6698 27.7113 11.6235 27.7611 11.5687 27.8C11.5138 27.8389 11.4516 27.8662 11.3858 27.88C11.32 27.8938 11.252 27.894 11.1861 27.8805H8.60182C8.14909 27.8805 8.11136 27.8805 8.26227 27.4089L12.3368 15.6568C12.7141 14.5816 13.0914 13.5064 13.4309 12.4311C13.5269 12.1129 13.5777 11.7827 13.5818 11.4502C13.5818 11.0541 13.7327 10.9598 14.0911 10.9786H17.6941C17.9582 10.9786 18.0902 10.9786 18.1845 11.337L22.825 24.4095C23.1834 25.4282 23.5418 26.428 23.8814 27.4277C24.0323 27.8427 24.0134 27.8805 23.5607 27.8805ZM29.333 27.5598C29.333 27.8805 29.2009 27.9748 28.8991 27.9748H26.1827C25.8055 27.9748 25.7111 27.8239 25.7111 27.4843V15.638C25.7111 15.2607 25.8243 15.1098 26.2205 15.1286H28.8802C29.182 15.1286 29.333 15.1286 29.333 15.5436C29.3197 19.5427 29.3197 23.5475 29.333 27.5598ZM27.4466 13.7893C27.1763 13.8065 26.9055 13.7652 26.6525 13.6684C26.3996 13.5715 26.1705 13.4214 25.9808 13.2281C25.7911 13.0348 25.6452 12.8029 25.5531 12.5482C25.461 12.2935 25.4248 12.022 25.447 11.752C25.4497 11.4838 25.5057 11.2188 25.6119 10.9725C25.7181 10.7261 25.8722 10.5034 26.0654 10.3173C26.2585 10.1312 26.4868 9.98535 26.7369 9.88838C26.987 9.79142 27.2539 9.74522 27.522 9.7525C27.783 9.75166 28.0413 9.80498 28.2806 9.90907C28.5199 10.0132 28.7349 10.1658 28.9122 10.3572C29.0895 10.5487 29.2252 10.7749 29.3106 11.0215C29.396 11.268 29.4293 11.5297 29.4084 11.7898C29.4239 12.0468 29.3865 12.3044 29.2987 12.5465C29.2108 12.7885 29.0743 13.0101 28.8976 13.1974C28.7208 13.3848 28.5076 13.5339 28.2711 13.6357C28.0345 13.7375 27.7796 13.7898 27.522 13.7893H27.4466Z" fill="#ACACAC"/>
<path d="M17.8824 20.599H13.8833C14.5624 18.4108 15.2038 16.2603 15.7697 14.1099C16.5242 16.2603 17.2033 18.4108 17.8824 20.599Z" fill="#ACACAC"/>
</svg>
