<svg width="38" height="38" viewBox="0 0 38 38" fill="none" xmlns="http://www.w3.org/2000/svg">
<path d="M15.9398 15.9965C15.9683 16.5692 15.7952 17.1339 15.4506 17.5923C15.1059 18.0506 14.6116 18.3737 14.0534 18.5053C13.0685 18.7951 12.0417 18.9162 11.0164 18.8637C10.7523 18.8637 10.7334 18.694 10.7334 18.5053V13.6951C10.7334 13.5631 10.8654 13.3367 10.9409 13.3367C12.02 13.2163 13.1118 13.2865 14.1666 13.5442C14.6974 13.6897 15.1625 14.0121 15.485 14.4581C15.8075 14.9041 15.9679 15.4468 15.9398 15.9965Z" fill="#ACACAC"/>
<path d="M28.2955 0H9.43182C6.93034 0 4.53132 0.993707 2.76252 2.76252C0.993707 4.53132 0 6.93034 0 9.43182V28.2955C0 30.7969 0.993707 33.1959 2.76252 34.9648C4.53132 36.7336 6.93034 37.7273 9.43182 37.7273H28.2955C30.7969 37.7273 33.1959 36.7336 34.9648 34.9648C36.7336 33.1959 37.7273 30.7969 37.7273 28.2955V9.43182C37.7273 6.93034 36.7336 4.53132 34.9648 2.76252C33.1959 0.993707 30.7969 0 28.2955 0ZM16.9773 20.75C16.026 21.3562 14.9345 21.707 13.8082 21.7686H11.2805C10.7523 21.7686 10.7523 21.7686 10.7523 22.278V26.6543C10.7523 27.0316 10.6391 27.1448 10.2618 27.1448H7.77182C7.41341 27.1448 7.31909 27.0127 7.31909 26.6732V10.7711C7.31909 10.3939 7.31909 10.2807 7.79068 10.2807H13.695C14.7727 10.3099 15.8249 10.6152 16.7509 11.1673C17.5506 11.6179 18.2165 12.2727 18.6804 13.0647C19.1444 13.8568 19.3899 14.7577 19.3918 15.6757C19.5009 16.6623 19.3328 17.6599 18.9063 18.5563C18.4797 19.4526 17.8117 20.2123 16.9773 20.75ZM28.1445 26.975C26.5035 27.6118 24.7082 27.7367 22.9948 27.3334C22.4817 27.2202 21.9761 27.0693 21.4857 26.8807C21.4098 26.8451 21.3432 26.7926 21.2909 26.7272C21.2385 26.6618 21.2019 26.5852 21.1839 26.5034V23.655C21.7875 23.8814 22.3534 24.1455 22.9382 24.3341C23.9182 24.6473 24.9558 24.7375 25.9752 24.5982C26.1771 24.5605 26.3751 24.4982 26.56 24.4095C26.6706 24.3611 26.7667 24.2849 26.8389 24.1882C26.9112 24.0916 26.9572 23.9779 26.9724 23.8581C26.9876 23.7384 26.9715 23.6168 26.9257 23.5051C26.8799 23.3935 26.8059 23.2956 26.7109 23.2211C26.2794 22.9224 25.8179 22.6695 25.3339 22.4666C24.5605 22.0893 23.7682 21.7875 23.0325 21.3536C22.3683 21.0305 21.8259 20.5017 21.4861 19.8458C21.1463 19.19 21.0271 18.442 21.1461 17.713C21.2421 17.0113 21.5336 16.3509 21.9872 15.8071C22.4409 15.2633 23.0385 14.8583 23.7116 14.6382C24.9249 14.2287 26.2193 14.1187 27.4843 14.3175C28.088 14.3175 28.6727 14.5439 29.2764 14.657C29.597 14.657 29.7102 14.9211 29.6914 15.2418V17.4489C29.6914 17.8639 29.597 17.9016 29.2198 17.7507C28.0416 17.2052 26.7393 16.9838 25.447 17.1093C25.264 17.1306 25.0856 17.1816 24.9189 17.2602C24.8057 17.3047 24.7061 17.3779 24.6299 17.4726C24.5538 17.5674 24.5037 17.6804 24.4846 17.8005C24.4656 17.9205 24.4782 18.0435 24.5213 18.1572C24.5644 18.2709 24.6364 18.3713 24.7302 18.4486C25.2754 18.8108 25.8488 19.1277 26.4468 19.3918C27.1636 19.7502 27.9182 20.0332 28.6161 20.4293C29.2495 20.7175 29.7741 21.2006 30.1134 21.808C30.4528 22.4155 30.5891 23.1155 30.5025 23.8059C30.4429 24.4946 30.1874 25.1519 29.7662 25.7001C29.345 26.2483 28.7758 26.6645 28.1257 26.8995L28.1445 26.975Z" fill="#ACACAC"/>
</svg>
