<svg width="32" height="28" viewBox="0 0 32 28" fill="none" xmlns="http://www.w3.org/2000/svg">
<path d="M14.2833 28C12.3555 28 10.4861 27.629 8.7245 26.899C7.02313 26.1935 5.49679 25.1844 4.18448 23.898C2.87394 22.6116 1.84287 21.1153 1.12307 19.4475C0.378478 17.7206 0 15.8881 0 13.9983C0 12.1084 0.376714 10.2759 1.12307 8.54906C1.84287 6.88123 2.87226 5.38506 4.18448 4.09861C5.49679 2.81391 7.02313 1.8031 8.7245 1.09746C10.4861 0.371018 12.3555 0 14.2833 0C14.8988 0 15.516 0.0381389 16.1155 0.114425C17.396 0.273934 18.6482 0.606813 19.842 1.10093C21.3807 1.73895 22.7761 2.62489 24 3.73965L22.1571 5.54629C20.0012 3.61136 17.2244 2.55207 14.2833 2.55207C7.84381 2.55207 2.60511 7.68746 2.60511 14C2.60511 20.3125 7.84381 25.4479 14.2833 25.4479C17.1572 25.4479 19.8933 24.4267 22.0315 22.5647L23.8461 24.3972C22.6594 25.4479 21.3153 26.2888 19.842 26.899C18.6163 27.4071 17.3288 27.7434 16.0129 27.8977C15.447 27.9653 14.8652 28 14.2833 28Z" fill="black"/>
<path d="M13.6661 21C12.766 21 11.8933 20.8156 11.0723 20.4505C10.2789 20.098 9.56623 19.5937 8.95352 18.9502C8.3408 18.3066 7.86062 17.5583 7.52496 16.725C7.17723 15.8627 7 14.9463 7 14.001C7 13.0555 7.1755 12.1391 7.52496 11.2769C7.86062 10.4435 8.34253 9.69519 8.95352 9.05171C9.56623 8.40813 10.2789 7.90383 11.0723 7.55133C11.8933 7.18622 12.766 7 13.6661 7C14.5662 7 15.4389 7.18441 16.26 7.54951C16.895 7.83152 17.4768 8.21112 18 8.68117L16.2014 10.5701C15.4803 9.97901 14.5973 9.65903 13.6661 9.65903C11.3873 9.65903 9.53353 11.6058 9.53353 13.9991C9.53353 16.3924 11.3873 18.3392 13.6661 18.3392C14.5732 18.3392 15.4389 18.0319 16.1532 17.4661L17.9261 19.3822C17.4234 19.8232 16.8658 20.1812 16.2617 20.4487C15.4407 20.8138 14.568 20.9982 13.6678 20.9982L13.6661 21Z" fill="black"/>
<path d="M19.0017 13.9542L24.9954 7L26.7892 8.83615C26.6964 8.945 26.607 9.05549 26.5208 9.16781L23.3552 12.6605H32V15.2532H23.3535L26.4922 18.7078C26.6086 18.8634 26.7318 19.0136 26.8618 19.1621L25.1169 21L19 13.956L19.0017 13.9542Z" fill="black"/>
</svg>
