<svg width="60" height="60" viewBox="0 0 60 60" fill="none" xmlns="http://www.w3.org/2000/svg">
<g clip-path="url(#clip0_740_300)">
<mask id="mask0_740_300" style="mask-type:luminance" maskUnits="userSpaceOnUse" x="0" y="0" width="60" height="60">
<path d="M60 0H0V60H60V0Z" fill="white"/>
</mask>
<g mask="url(#mask0_740_300)">
<path d="M33.6601 49.5751H55.9651C56.6726 49.5751 57.37 49.3925 57.9825 49.0501C58.5926 48.7099 59.1022 48.2148 59.4601 47.6151C59.8131 47.0231 59.9997 46.3468 60.0001 45.6575C59.9986 44.969 59.8112 44.2935 59.4576 43.7026L44.48 18.535C44.1218 17.9361 43.6123 17.442 43.0026 17.1026C42.386 16.7579 41.6914 16.5772 40.985 16.5776C40.2776 16.5776 39.58 16.7601 38.9676 17.1026C38.3588 17.4424 37.8501 17.9364 37.4925 18.535L33.6576 24.975L26.1751 12.3826C25.8168 11.7837 25.3072 11.2897 24.6975 10.95C24.081 10.6055 23.3864 10.4248 22.6801 10.425C21.97 10.425 21.2751 10.6075 20.6625 10.95C20.0529 11.2897 19.5434 11.7837 19.1851 12.3826L0.540059 43.7026C0.186541 44.2935 -0.000885892 44.969 -0.00244141 45.6575C-0.00244141 46.345 0.182558 47.02 0.537559 47.6151C0.894737 48.2146 1.40345 48.7095 2.01256 49.0501C2.62756 49.3925 3.32506 49.5751 4.03256 49.5751H18.0326C23.5826 49.5751 27.6726 47.2101 30.4875 42.6001L37.3201 31.1175L40.9801 24.975L51.9675 43.4301H37.3201L33.6601 49.5751ZM17.8076 43.4251L8.03756 43.42L22.6826 18.8151L29.9901 31.1175L25.0976 39.3425C23.2275 42.3326 21.1051 43.4225 17.8076 43.4225" fill="black" fill-opacity="0.3"/>
</g>
</g>
<defs>
<clipPath id="clip0_740_300">
<rect width="60" height="60" fill="white"/>
</clipPath>
</defs>
</svg>
