<svg width="78" height="78" viewBox="0 0 78 78" fill="none" xmlns="http://www.w3.org/2000/svg">
<g clip-path="url(#clip0_740_361)">
<path d="M72.4165 31.9182C73.2849 29.2916 73.5845 26.5103 73.2954 23.759C73.0063 21.0077 72.135 18.3494 70.7395 15.9607C68.6645 12.3526 65.4979 9.49602 61.6958 7.8023C57.8937 6.10859 53.6523 5.66511 49.582 6.53573C47.2702 3.9639 44.3225 2.04554 41.0348 0.973249C37.7471 -0.0990424 34.2351 -0.287522 30.8516 0.426735C27.468 1.14099 24.3319 2.73284 21.7581 5.04247C19.1843 7.35209 17.2634 10.2982 16.1883 13.585C13.4777 14.1439 10.9171 15.2735 8.67678 16.8985C6.43645 18.5235 4.56771 20.6069 3.19479 23.01C1.10037 26.6141 0.205574 30.7907 0.639612 34.9365C1.07365 39.0824 2.81406 42.983 5.60954 46.0752C4.73357 48.7003 4.4283 51.4821 4.71415 54.2346C5 56.9872 5.87037 59.6469 7.26704 62.036C9.34302 65.6472 12.5122 68.5059 16.3177 70.1998C20.1231 71.8937 24.3682 72.3353 28.4408 71.461C30.2797 73.5281 32.5375 75.1803 35.0641 76.3077C37.5907 77.4352 40.3283 78.012 43.095 78C47.2665 78.0017 51.3308 76.679 54.7022 74.2223C58.0736 71.7656 60.5778 68.3019 61.854 64.3305C64.5641 63.7711 67.124 62.6414 69.3638 61.0164C71.6035 59.3913 73.4717 57.3082 74.8443 54.9055C76.9138 51.3069 77.7934 47.1465 77.3574 43.0182C76.9214 38.89 75.1921 35.0051 72.4165 31.9182ZM43.095 72.8975C39.6794 72.9021 36.3708 71.7056 33.748 69.5175L34.2063 69.2542L49.738 60.2907C50.1229 60.0626 50.4423 59.739 50.6655 59.3513C50.8887 58.9636 51.008 58.5248 51.012 58.0775V36.1822L57.577 39.9782C57.6097 39.9945 57.6379 40.0183 57.6594 40.0477C57.6809 40.0771 57.695 40.1112 57.7005 40.1472V58.292C57.692 62.163 56.1504 65.8729 53.4132 68.6101C50.676 71.3473 46.966 72.8889 43.095 72.8975ZM11.7 59.488C9.98567 56.5292 9.36996 53.0605 9.96129 49.6925L10.4228 49.9687L25.9675 58.9355C26.3518 59.1612 26.7894 59.2802 27.235 59.2802C27.6807 59.2802 28.1183 59.1612 28.5025 58.9355L47.4923 47.9862V55.5652C47.4909 55.6048 47.4806 55.6435 47.462 55.6784C47.4434 55.7133 47.4171 55.7435 47.385 55.7667L31.655 64.8375C28.2984 66.7698 24.3124 67.2918 20.5714 66.289C16.8304 65.2861 13.64 62.8402 11.7 59.488ZM7.60504 25.662C9.33396 22.6864 12.0568 20.4159 15.2945 19.2497V37.7C15.2897 38.1458 15.404 38.5848 15.6257 38.9717C15.8474 39.3585 16.1684 39.6791 16.5555 39.9002L35.4543 50.8007L28.8893 54.5967C28.8534 54.6145 28.8139 54.6237 28.7739 54.6237C28.7339 54.6237 28.6944 54.6145 28.6585 54.5967L12.961 45.5422C9.60944 43.6009 7.16384 40.4104 6.15994 36.6696C5.15604 32.9287 5.67569 28.9425 7.60504 25.584V25.662ZM61.5453 38.1907L42.588 27.183L49.1368 23.4C49.1727 23.3822 49.2121 23.373 49.2522 23.373C49.2922 23.373 49.3317 23.3822 49.3675 23.4L65.065 32.4707C67.4666 33.855 69.4246 35.8941 70.7104 38.3497C71.9962 40.8054 72.5566 43.5763 72.3262 46.3386C72.0958 49.1009 71.0841 51.7407 69.4093 53.9494C67.7345 56.1581 65.4657 57.8447 62.868 58.812V40.3585C62.8544 39.9135 62.7253 39.4797 62.4934 39.0996C62.2615 38.7196 61.9348 38.4064 61.5453 38.1907ZM68.0778 28.366L67.6195 28.0897L52.104 19.0482C51.7167 18.8227 51.2766 18.7039 50.8284 18.7039C50.3802 18.7039 49.9401 18.8227 49.5528 19.0482L30.5793 29.9975V22.4152C30.5766 22.3772 30.5836 22.3391 30.5995 22.3045C30.6154 22.2698 30.6397 22.2398 30.6703 22.217L46.3678 13.1592C48.7739 11.7745 51.5245 11.1032 54.298 11.2238C57.0716 11.3443 59.7535 12.2519 62.0304 13.8402C64.3072 15.4286 66.085 17.6322 67.1559 20.1935C68.2268 22.7547 68.5465 25.5679 68.0778 28.3042V28.366ZM26.9978 41.8047L20.4328 38.0217C20.3998 38.0019 20.3716 37.975 20.3502 37.943C20.3289 37.911 20.3149 37.8746 20.3093 37.8365V19.7437C20.3147 16.9685 21.1097 14.2522 22.6013 11.9119C24.0929 9.57166 26.2195 7.70409 28.7329 6.52733C31.2462 5.35057 34.0425 4.91321 36.7951 5.26632C39.5478 5.61943 42.1431 6.74843 44.278 8.52148L43.8165 8.78148L28.288 17.745C27.9026 17.9727 27.5825 18.2961 27.3588 18.6839C27.135 19.0716 27.0151 19.5106 27.0108 19.9582L26.9978 41.8047ZM30.563 34.1185L39.0195 29.2435L47.4923 34.1185V43.8652L39.052 48.7402L30.5793 43.8652L30.563 34.1185Z" fill="#ACACAC"/>
</g>
<defs>
<clipPath id="clip0_740_361">
<rect width="78" height="78" fill="white"/>
</clipPath>
</defs>
</svg>
