<svg width="70" height="67" viewBox="0 0 70 67" fill="none" xmlns="http://www.w3.org/2000/svg">
<g clip-path="url(#clip0_740_327)">
<mask id="mask0_740_327" style="mask-type:luminance" maskUnits="userSpaceOnUse" x="0" y="0" width="70" height="67">
<path d="M70 0H0V66.9565H70V0Z" fill="white"/>
</mask>
<g mask="url(#mask0_740_327)">
<path d="M34.9998 11.1594C30.2119 11.1594 26.0959 12.3959 22.8666 15.0429C19.6559 17.6765 17.5606 21.502 16.3939 26.2737C16.2701 26.7791 16.3343 27.31 16.5755 27.775C16.8167 28.24 17.2198 28.61 17.7154 28.8214C18.211 29.0328 18.7682 29.0724 19.291 28.9332C19.8138 28.7942 20.2696 28.4851 20.5799 28.0593C22.0546 26.0416 23.5293 24.8319 24.9479 24.207C26.3199 23.6044 27.7993 23.4839 29.4979 23.9169C31.2058 24.3543 32.5312 25.6399 34.6078 27.8003L34.6778 27.8718C36.2458 29.501 38.1546 31.4873 40.7678 33.0319C43.4838 34.6343 46.8578 35.7102 51.3332 35.7102C56.1212 35.7102 60.2372 34.4736 63.4666 31.8267C66.6772 29.193 68.7772 25.3676 69.9392 20.5958C70.0631 20.0904 69.9989 19.5596 69.7578 19.0946C69.5165 18.6296 69.1135 18.2596 68.6177 18.0482C68.1222 17.8367 67.565 17.7972 67.0421 17.9363C66.5192 18.0754 66.0636 18.3845 65.7532 18.8103C64.2786 20.8279 62.8038 22.0376 61.3852 22.6626C60.0132 23.2652 58.5338 23.3857 56.8352 22.9527C55.1272 22.5153 53.8018 21.2297 51.7252 19.0692L51.6552 18.9978C50.0872 17.3685 48.1786 15.3821 45.5652 13.8377C42.8492 12.2352 39.4752 11.1594 34.9998 11.1594ZM18.6666 31.2463C13.8786 31.2463 9.76257 32.4829 6.53326 35.1298C3.32257 37.7636 1.22725 41.5889 0.0605843 46.3608C-0.0632451 46.866 0.000959895 47.3968 0.24215 47.8619C0.483342 48.3269 0.886432 48.697 1.38206 48.9085C1.87768 49.1197 2.43485 49.1593 2.95767 49.0202C3.4805 48.8811 3.93626 48.5719 4.24658 48.1461C5.72126 46.1286 7.19592 44.9188 8.61458 44.294C9.98658 43.6914 11.4659 43.5709 13.1646 44.0039C14.8726 44.4413 16.1979 45.7269 18.2746 47.8874L18.3446 47.9586C19.9126 49.5881 21.8213 51.5743 24.4346 53.1189C27.1506 54.7212 30.5246 55.7971 34.9998 55.7971C39.7878 55.7971 43.9041 54.5606 47.1332 51.9136C50.3441 49.2801 52.4441 45.4545 53.6061 40.6829C53.7296 40.1774 53.6654 39.6466 53.4244 39.1816C53.183 38.7165 52.7801 38.3464 52.2846 38.1352C51.7888 37.9237 51.2316 37.8841 50.7087 38.0232C50.1861 38.1623 49.7302 38.4715 49.4198 38.8973C47.9452 40.9148 46.4706 42.1246 45.0518 42.7494C43.6798 43.352 42.2006 43.4725 40.5018 43.0398C38.7938 42.6021 37.4686 41.3165 35.3918 39.1563L35.3218 39.0848C33.7586 37.4556 31.8452 35.4691 29.2319 33.9245C26.5159 32.3176 23.1419 31.2463 18.6666 31.2463Z" fill="#ACACAC"/>
</g>
</g>
<defs>
<clipPath id="clip0_740_327">
<rect width="70" height="66.9565" fill="white"/>
</clipPath>
</defs>
</svg>
